# xmcd
#
# Track frame offsets:
#   150
#   18008
#   36561
#   55155
#   71123
#   85690
#   103010
#   120154
#   138550
#   156781
#   172508
#   188981
#   208032
#   225978
#   245018
#   271676
#   288319
#   306409
#   315936
#   325625
#
# Disc length: 4493 seconds
#
# Revision: 0
# Processed by: cddbd v1.4PL0 Copyright (c) Steve Scherf et al.
# Submitted via: uFREEDB ActiveX Control 1.5
#
DISCID=05118b14
DTITLE=dfs - sd
DYEAR=1900
DGENRE=Alternative
TTITLE0=1
TTITLE1=2
TTITLE2=3
TTITLE3=4
TTITLE4=5
TTITLE5=6
TTITLE6=7
TTITLE7=8
TTITLE8=9
TTITLE9=10
TTITLE10=11
TTITLE11=12
TTITLE12=13
TTITLE13=14
TTITLE14=15
TTITLE15=16
TTITLE16=17
TTITLE17=18
TTITLE18=19
TTITLE19=20
EXTD=
EXTT0=
EXTT1=
EXTT2=
EXTT3=
EXTT4=
EXTT5=
EXTT6=
EXTT7=
EXTT8=
EXTT9=
EXTT10=
EXTT11=
EXTT12=
EXTT13=
EXTT14=
EXTT15=
EXTT16=
EXTT17=
EXTT18=
EXTT19=
PLAYORDER=
